<svg xmlns="http://www.w3.org/2000/svg" xmlns:xlink="http://www.w3.org/1999/xlink" version="1.1" x="0px" y="0px" viewBox="0 0 100 125" enable-background="new 0 0 100 100" xml:space="preserve"><path d="M58.282,64.794l0.007-0.007c0,0-1.994-1.52-1.688-3.451c0.139-0.875,2.913-3.797,2.913-3.797l-0.012-0.002  c2.602-2.904,4.229-6.979,4.229-11.503c0-8.814-6.148-15.96-13.731-15.96s-13.73,7.146-13.73,15.96c0,4.525,1.627,8.599,4.23,11.503  l-0.013,0.002c0,0,2.772,2.922,2.912,3.797c0.308,1.932-1.687,3.451-1.687,3.451l0.006,0.007C34.331,66.169,27.827,69.341,23,73.695  c6.564,7.531,16.222,12.3,26.999,12.3c10.779,0,20.436-4.769,27-12.3C72.174,69.34,65.67,66.169,58.282,64.794z M93.285,20.75  c0-8.028-6.508-14.536-14.536-14.536c-4.198,0-7.97,1.79-10.623,4.636C62.613,8.294,56.477,6.857,50,6.857  C26.173,6.857,6.857,26.173,6.857,50S26.173,93.143,50,93.143S93.143,73.827,93.143,50c0-6.74-1.548-13.117-4.304-18.8  C91.576,28.557,93.285,24.856,93.285,20.75z M78.749,9.959c5.96,0,10.791,4.831,10.791,10.791s-4.831,10.791-10.791,10.791  S67.958,26.71,67.958,20.75S72.789,9.959,78.749,9.959z M50,88.429c-21.224,0-38.429-17.205-38.429-38.429S28.776,11.571,50,11.571  c5.51,0,10.744,1.168,15.482,3.257c-0.81,1.81-1.27,3.811-1.27,5.922c0,8.028,6.508,14.536,14.536,14.536  c2.2,0,4.278-0.503,6.147-1.378c2.262,4.896,3.532,10.344,3.532,16.092C88.429,71.224,71.224,88.429,50,88.429z M85.162,20.666  c0,0.714-0.578,1.292-1.293,1.292h-3.811v3.812l0,0l0,0c0,0.714-0.579,1.293-1.293,1.293s-1.293-0.579-1.293-1.293l0,0l0,0v-3.812  h-3.811c-0.715,0-1.293-0.579-1.293-1.292c0-0.714,0.578-1.293,1.293-1.293c0.001,0,0.002,0,0.004,0h3.807v-3.812l0,0  c0-0.714,0.579-1.293,1.293-1.293s1.293,0.579,1.293,1.293l0,0v3.812h3.807c0.002,0,0.003,0,0.004,0  C84.584,19.373,85.162,19.952,85.162,20.666z"/><text x="0" y="115" fill="#000000" font-size="5px" font-weight="bold" font-family="'Helvetica Neue', Helvetica, Arial-Unicode, Arial, Sans-serif">Created by Christopher Holm-Hansen</text><text x="0" y="120" fill="#000000" font-size="5px" font-weight="bold" font-family="'Helvetica Neue', Helvetica, Arial-Unicode, Arial, Sans-serif">from the Noun Project</text></svg>