<svg xmlns="http://www.w3.org/2000/svg" data-name="Layer 1" viewBox="0 0 100 125" x="0px" y="0px"><title>52</title><path d="M50,5A45,45,0,1,0,95,50,45.05035,45.05035,0,0,0,50,5Zm0,86.40039A41.40039,41.40039,0,1,1,91.40039,50,41.44733,41.44733,0,0,1,50,91.40039ZM68.4082,22.62891A32.98019,32.98019,0,0,0,22.62891,68.4082l1.22168,1.80762L70.21484,23.85059ZM24.44873,64.52637A29.387,29.387,0,0,1,64.52588,24.44824ZM76.14941,29.78418,29.78516,76.14941l1.80664,1.22168A32.98,32.98,0,0,0,77.37109,31.5918ZM50,79.40039a29.1682,29.1682,0,0,1-14.52588-3.84863L75.55127,35.47363A29.38679,29.38679,0,0,1,50,79.40039Z"/><text x="0" y="115" fill="#000000" font-size="5px" font-weight="bold" font-family="'Helvetica Neue', Helvetica, Arial-Unicode, Arial, Sans-serif">Created by Hrbon</text><text x="0" y="120" fill="#000000" font-size="5px" font-weight="bold" font-family="'Helvetica Neue', Helvetica, Arial-Unicode, Arial, Sans-serif">from the Noun Project</text></svg>