<svg xmlns="http://www.w3.org/2000/svg" xmlns:xlink="http://www.w3.org/1999/xlink" xml:space="preserve" version="1.1" style="shape-rendering:geometricPrecision;text-rendering:geometricPrecision;image-rendering:optimizeQuality;" viewBox="0 0 260 325" x="0px" y="0px" fill-rule="evenodd" clip-rule="evenodd"><defs><style type="text/css">
   
    .fil0 {fill:black}
   
  </style></defs><g><path class="fil0" d="M197 18c11,-25 63,-22 63,10l0 126c0,27 -50,30 -62,10 -23,11 -49,29 -46,57 6,55 -40,48 -56,-2 -6,-20 -2,-34 3,-50l-73 0c-29,0 -34,-35 -15,-48 -10,-12 -6,-34 10,-42 -10,-13 -4,-36 11,-43 -7,-13 1,-34 28,-35 45,-2 95,-1 137,17zm31 26c-6,0 -10,-5 -10,-10 0,-6 4,-10 10,-10 5,0 10,4 10,10 0,5 -5,10 -10,10zm-33 -16c-40,-19 -89,-20 -134,-17 -28,1 -27,26 -11,26 5,0 10,0 14,0 5,0 7,7 0,7 -8,0 -16,0 -25,0 -13,1 -22,33 0,33 6,0 13,0 17,0 7,0 7,8 0,8 -7,0 -15,0 -22,0 -21,0 -27,34 -3,34l18 0c7,0 7,8 0,8 -8,0 -15,0 -23,0 -22,0 -22,32 0,32l87 0c-8,22 -14,36 -7,56 11,38 41,50 37,7 -4,-33 24,-54 52,-68l0 -126z"/></g><text x="0" y="275" fill="#000000" font-size="5px" font-weight="bold" font-family="'Helvetica Neue', Helvetica, Arial-Unicode, Arial, Sans-serif">Created by Wahyuntitle</text><text x="0" y="280" fill="#000000" font-size="5px" font-weight="bold" font-family="'Helvetica Neue', Helvetica, Arial-Unicode, Arial, Sans-serif">from the Noun Project</text></svg>