<svg xmlns="http://www.w3.org/2000/svg" xmlns:xlink="http://www.w3.org/1999/xlink" version="1.1" x="0px" y="0px" viewBox="0 0 48 60" style="enable-background:new 0 0 48 48;" xml:space="preserve"><g>
<path d="M24,13.5c-11.14,0-20,9.75-20.37,10.17c-0.17,0.19-0.17,0.48,0,0.67C4,24.75,12.86,34.5,24,34.5s20-9.75,20.37-10.17   c0.17-0.19,0.17-0.48,0-0.67C44,23.25,35.14,13.5,24,13.5z M24,33.5c-9.55,0-17.64-7.78-19.31-9.5c1.67-1.72,9.75-9.5,19.31-9.5   c9.55,0,17.64,7.78,19.31,9.5C41.64,25.72,33.56,33.5,24,33.5z"/>
<path d="M24,16.5c-4.14,0-7.5,3.36-7.5,7.5s3.36,7.5,7.5,7.5s7.5-3.36,7.5-7.5S28.14,16.5,24,16.5z M24,30.5   c-3.58,0-6.5-2.92-6.5-6.5s2.92-6.5,6.5-6.5s6.5,2.92,6.5,6.5S27.58,30.5,24,30.5z"/>
<path d="M24,21.5c-1.38,0-2.5,1.12-2.5,2.5s1.12,2.5,2.5,2.5s2.5-1.12,2.5-2.5S25.38,21.5,24,21.5z M24,25.5   c-0.83,0-1.5-0.67-1.5-1.5s0.67-1.5,1.5-1.5s1.5,0.67,1.5,1.5S24.83,25.5,24,25.5z"/></g></svg>