<svg xmlns="http://www.w3.org/2000/svg" xmlns:xlink="http://www.w3.org/1999/xlink" version="1.1" x="0px" y="0px" viewBox="-255 347 100 125" style="enable-background:new -255 347 100 100;" xml:space="preserve">
<style type="text/css">
.alb
{
    fill: #E9EBEE;
}
</style>
<path class="alb" d="M-227.1,387.7h44.2c3.3,0,6-2.7,6-6c0-3.3-2.7-6-6-6h-44.2c-3.3,0-6,2.7-6,6C-233.1,385-230.4,387.7-227.1,387.7z   M-227.1,378.8h44.2c1.6,0,3,1.3,3,3c0,1.7-1.3,3-3,3h-44.2c-1.6,0-3-1.3-3-3C-230.1,380.1-228.7,378.8-227.1,378.8z"/>
<path class="alb" d="M-182.9,391h-44.2c-3.3,0-6,2.7-6,6s2.7,6,6,6h44.2c3.3,0,6-2.7,6-6S-179.6,391-182.9,391z M-182.9,400h-44.2  c-1.6,0-3-1.3-3-3s1.3-3,3-3h44.2c1.6,0,3,1.3,3,3S-181.3,400-182.9,400z"/>
<path class="alb" d="M-182.9,406.3h-44.2c-3.3,0-6,2.7-6,6c0,3.3,2.7,6,6,6h44.2c3.3,0,6-2.7,6-6C-176.9,409-179.6,406.3-182.9,406.3z   M-182.9,415.2h-44.2c-1.6,0-3-1.3-3-3c0-1.7,1.3-3,3-3h44.2c1.6,0,3,1.3,3,3C-179.9,413.9-181.3,415.2-182.9,415.2z"/>
</svg>