<svg xmlns="http://www.w3.org/2000/svg" viewBox="0 0 64 80" x="0px" y="0px"><g data-name="19-comment"><path d="M54.29,38.71A1,1,0,0,1,54,38V36.65A3.66,3.66,0,0,0,50.35,33H27.65A3.66,3.66,0,0,0,24,36.65v15.7A3.66,3.66,0,0,0,27.65,56h22.7A3.66,3.66,0,0,0,54,52.35V44a1,1,0,0,1,.29-.71L56.59,41ZM48,49H39a1,1,0,0,1,0-2h9a1,1,0,0,1,0,2Zm0-7H30a1,1,0,0,1,0-2H48a1,1,0,0,1,0,2ZM36.35,8H13.65A3.66,3.66,0,0,0,10,11.65V13a1,1,0,0,1-.29.71L7.41,16l2.3,2.29A1,1,0,0,1,10,19v8.35A3.66,3.66,0,0,0,13.65,31h22.7A3.66,3.66,0,0,0,40,27.35V11.65A3.66,3.66,0,0,0,36.35,8ZM25,24H16a1,1,0,0,1,0-2h9a1,1,0,0,1,0,2Zm9-7H16a1,1,0,0,1,0-2H34a1,1,0,0,1,0,2Z"/></g></svg>