<svg xmlns="http://www.w3.org/2000/svg" xmlns:xlink="http://www.w3.org/1999/xlink" xml:space="preserve" version="1.1" style="shape-rendering:geometricPrecision;text-rendering:geometricPrecision;image-rendering:optimizeQuality;" viewBox="0 0 260 325" x="0px" y="0px" fill-rule="evenodd" clip-rule="evenodd"><defs><style type="text/css">
   
    .fil0 {fill:black}
   
  </style></defs><g><path class="fil0" d="M197 242c11,25 63,22 63,-10l0 -127c0,-27 -50,-30 -62,-10 -23,-11 -49,-28 -46,-57 6,-54 -40,-48 -56,3 -6,19 -2,33 3,50l-73 0c-29,0 -34,35 -15,47 -10,12 -6,34 10,43 -10,12 -4,36 11,42 -7,14 1,34 28,36 45,2 95,1 137,-17zm31 -26c-6,0 -10,4 -10,10 0,5 4,10 10,10 5,0 10,-5 10,-10 0,-6 -5,-10 -10,-10zm-33 16c-40,18 -89,19 -134,17 -28,-1 -27,-27 -11,-27 5,0 10,0 14,0 5,0 7,-7 0,-7 -8,0 -16,0 -25,0 -13,-1 -22,-33 0,-33 6,0 13,0 17,0 7,0 7,-8 0,-8 -7,0 -15,0 -22,0 -21,0 -27,-33 -3,-33l18 0c7,0 7,-8 0,-8 -8,0 -15,0 -23,0 -22,-1 -22,-32 0,-33l87 0c-8,-21 -14,-35 -7,-56 11,-38 41,-49 37,-7 -4,34 24,54 52,68l0 127z"/></g><text x="0" y="275" fill="#000000" font-size="5px" font-weight="bold" font-family="'Helvetica Neue', Helvetica, Arial-Unicode, Arial, Sans-serif">Created by Wahyuntitle</text><text x="0" y="280" fill="#000000" font-size="5px" font-weight="bold" font-family="'Helvetica Neue', Helvetica, Arial-Unicode, Arial, Sans-serif">from the Noun Project</text></svg>