<svg xmlns="http://www.w3.org/2000/svg" xmlns:xlink="http://www.w3.org/1999/xlink" version="1.1" x="0px" y="0px" viewBox="0 0 20 25" enable-background="new 0 0 20 20" xml:space="preserve">
<style type="text/css">
.alb
{
    fill: #E9EBEE;
}
</style>
<g>
<path class="alb" d="M18,0H2C0.9,0,0,0.9,0,2v10c0,1.1,0.9,2,2,2h1v6l6.9-6H18c1.1,0,2-0.9,2-2V2C20,0.9,19.1,0,18,0z M4,8C3.4,8,3,7.5,3,7   c0-0.6,0.4-1,1-1c0.6,0,1,0.4,1,1C5,7.5,4.6,8,4,8z M8,8C7.4,8,7,7.5,7,7c0-0.6,0.4-1,1-1c0.6,0,1,0.4,1,1C9,7.5,8.6,8,8,8z M12,8   c-0.6,0-1-0.4-1-1c0-0.6,0.4-1,1-1c0.6,0,1,0.4,1,1C13,7.5,12.6,8,12,8z M16,8c-0.6,0-1-0.4-1-1c0-0.6,0.4-1,1-1c0.6,0,1,0.4,1,1   C17,7.5,16.6,8,16,8z"/>
</g>
</svg>