<svg xmlns="http://www.w3.org/2000/svg" data-name="Layer 1" viewBox="0 0 100 125" x="0px" y="0px">
<style type="text/css">
.alb
{
    fill: #E9EBEE;
}
</style>
<path class="alb" d="M82.57,66.33c-6.8-7.88-2-18.44-5.19-35.62C75.18,19,63.27,14.95,55.9,13.55V11.2a5.91,5.91,0,0,0-11.81,0v2.34C36.71,14.95,24.8,19,22.6,30.71c-3.22,17.18,1.61,27.75-5.19,35.62s-4.12,8.77-4.12,8.77H86.69S89.37,74.21,82.57,66.33Z"/>
<path class="alb" d="M50,94.71A13.07,13.07,0,0,0,63.06,81.64H36.92A13.07,13.07,0,0,0,50,94.71Z"/>
<path class="alb" d="M89.17,40.57a2.79,2.79,0,0,1-2.75-3.24C89.1,21,74.84,13.89,74.69,13.82a2.79,2.79,0,0,1,2.44-5c.18.09,18.13,9.08,14.79,29.42A2.79,2.79,0,0,1,89.17,40.57Z"/>
<path class="alb" d="M10.83,40.57a2.79,2.79,0,0,1-2.75-2.34C4.74,17.89,22.69,8.9,22.87,8.81a2.79,2.79,0,0,1,2.45,5c-.6.3-14.39,7.34-11.74,23.52a2.79,2.79,0,0,1-2.3,3.2A2.82,2.82,0,0,1,10.83,40.57Z"/>
</svg>