<svg xmlns="http://www.w3.org/2000/svg" viewBox="0 0 64 80" x="0px" y="0px"><g><path d="M32,6a1,1,0,0,1-1-1V3a1,1,0,0,1,2,0V5A1,1,0,0,1,32,6Z"/><path d="M23.5,8.277a1,1,0,0,1-.867-.5l-1-1.732a1,1,0,0,1,1.732-1l1,1.732a1,1,0,0,1-.865,1.5Z"/><path d="M40.5,8.277a1,1,0,0,1-.865-1.5l1-1.732a1,1,0,0,1,1.732,1l-1,1.732A1,1,0,0,1,40.5,8.277Z"/><path d="M59.725,23.367a4.14,4.14,0,0,0,.035-.537,4.013,4.013,0,0,0-3.177-3.909,4.1,4.1,0,0,0-4.725,3.027L48.382,34.224a3.98,3.98,0,0,0-1.094.413l-8.84,5.182A9.033,9.033,0,0,0,34,47.583V60a1,1,0,0,0,2,0V47.583a7.024,7.024,0,0,1,3.46-6.038l8.834-5.179a2,2,0,1,1,2,3.464l-5.731,3.309a1,1,0,1,0,1,1.732l5.731-3.309a3.98,3.98,0,0,0,1.743-4.851l2.745-10.228a2.121,2.121,0,0,1,2.387-1.6A2.007,2.007,0,0,1,59.76,26.83a1.972,1.972,0,0,1-.066.521L55.345,43.583a3.007,3.007,0,0,1-.905,1.466l-6.761,6.01A5,5,0,0,0,46,54.8V60a1,1,0,0,0,2,0V54.8a3,3,0,0,1,1.007-2.242l6.763-6.011A5,5,0,0,0,57.276,44.1l4.349-16.23a3.951,3.951,0,0,0,.135-1.041A4.006,4.006,0,0,0,59.725,23.367Zm-5.874,2.6-2.365,8.808a4.011,4.011,0,0,0-1.042-.493l3.342-11.8a2.131,2.131,0,0,1,2.389-1.6A2,2,0,0,1,57.76,22.83l0,.014A4.142,4.142,0,0,0,53.851,25.965Z"/><path d="M25.552,39.819l-8.846-5.185a3.938,3.938,0,0,0-1.088-.411L12.146,21.96a4.1,4.1,0,0,0-4.731-3.039A4.014,4.014,0,0,0,4.24,22.83a4.128,4.128,0,0,0,.035.537,3.988,3.988,0,0,0-1.9,4.5L6.724,44.1a5,5,0,0,0,1.507,2.442l6.762,6.01A3,3,0,0,1,16,54.8V60a1,1,0,0,0,2,0V54.8a5,5,0,0,0-1.679-3.737l-6.76-6.01a3,3,0,0,1-.906-1.466L4.305,27.349a2.007,2.007,0,0,1,1.526-2.47,2.12,2.12,0,0,1,2.387,1.6l2.745,10.228a3.98,3.98,0,0,0,1.743,4.851l5.731,3.309a1,1,0,1,0,1-1.732L13.706,39.83a1.994,1.994,0,0,1,1.119-3.72h.008a1.957,1.957,0,0,1,.867.253l8.84,5.182A7.024,7.024,0,0,1,28,47.583V60a1,1,0,0,0,2,0V47.583A9.033,9.033,0,0,0,25.552,39.819ZM12.514,34.774l-2.365-8.809a4.138,4.138,0,0,0-3.907-3.122l0-.013a2,2,0,0,1,1.583-1.951,2.129,2.129,0,0,1,2.395,1.614L13.556,34.28A3.982,3.982,0,0,0,12.514,34.774Z"/><path d="M39.608,35.479a2.013,2.013,0,0,0,1.9-2.625l-2.457-7.562,6.432-4.674A2,2,0,0,0,44.311,17H36.359L33.9,9.438h0a2,2,0,0,0-3.8,0L27.641,17H19.689a2,2,0,0,0-1.175,3.618l6.432,4.674-2.457,7.562a2,2,0,0,0,3.078,2.236L32,30.417l6.433,4.673A1.989,1.989,0,0,0,39.608,35.479ZM32,28.415a2,2,0,0,0-1.176.383l-6.432,4.674,2.457-7.562a2,2,0,0,0-.727-2.236L19.689,19h7.952a2,2,0,0,0,1.9-1.382L32,10.043l0,.013,2.457,7.562A2,2,0,0,0,36.359,19h7.952l-6.432,4.673a2,2,0,0,0-.728,2.237l2.457,7.562L33.176,28.8A2,2,0,0,0,32,28.415Z"/><path d="M15.046,13.366l1.731,1a1,1,0,1,0,1-1.732l-1.731-1a1,1,0,0,0-1,1.732Z"/><path d="M46.724,14.5a1,1,0,0,0,.5-.134l1.731-1a1,1,0,0,0-1-1.732l-1.731,1a1,1,0,0,0,.5,1.866Z"/></g><text x="0" y="79" fill="#000000" font-size="5px" font-weight="bold" font-family="'Helvetica Neue', Helvetica, Arial-Unicode, Arial, Sans-serif">Created by Sarote Impheng</text><text x="0" y="84" fill="#000000" font-size="5px" font-weight="bold" font-family="'Helvetica Neue', Helvetica, Arial-Unicode, Arial, Sans-serif">from the Noun Project</text></svg>